<svg xmlns="http://www.w3.org/2000/svg" viewBox="0 0 769.87 357.48"><defs><style>.cls-1,.cls-2{fill:none;}.cls-1{stroke:#020202;}</style></defs><g id="Layer_2" data-name="Layer 2"><g id="Layer_1-2" data-name="Layer 1"><path class="cls-1" d="M154,274.66c-.68,0-1.35,0-2,0s-1.33,0-2-.07-1.31-.08-2-.14-1.3-.11-1.94-.18-1.28-.15-1.91-.24-1.26-.18-1.89-.29-1.24-.22-1.86-.34l-1.83-.39c-.6-.14-1.21-.29-1.8-.45L135,272l-1.75-.55-1.73-.61c-.57-.21-1.14-.43-1.7-.66s-1.12-.46-1.67-.71-1.11-.5-1.65-.76-1.08-.53-1.62-.82-1.07-.56-1.59-.86-1-.6-1.56-.9-1-.63-1.53-1l-1.5-1c-.49-.34-1-.68-1.46-1l-1.43-1.08c-.48-.37-.94-.74-1.4-1.12s-.92-.77-1.37-1.17-.9-.8-1.34-1.21l-1.31-1.25c-.43-.43-.85-.86-1.27-1.3s-.84-.88-1.24-1.34-.82-.91-1.21-1.38-.8-.94-1.18-1.42-.77-1-1.15-1.47-.75-1-1.12-1.51l-1.08-1.55c-.36-.53-.71-1.06-1.05-1.6s-.69-1.08-1-1.64-.67-1.11-1-1.68-.64-1.14-1-1.72-.62-1.17-.92-1.76-.6-1.2-.9-1.81-.58-1.22-.86-1.85-.56-1.25-.83-1.89-.54-1.28-.8-1.93-.51-1.31-.76-2-.5-1.34-.74-2-.47-1.37-.7-2.06-.45-1.39-.67-2.1-.43-1.42-.64-2.14-.41-1.45-.61-2.19-.39-1.48-.57-2.22-.37-1.5-.54-2.26-.34-1.52-.5-2.28-.31-1.55-.46-2.32-.29-1.57-.43-2.36l-.39-2.38c-.12-.8-.24-1.61-.35-2.42s-.21-1.63-.31-2.45-.19-1.65-.28-2.49-.17-1.67-.24-2.51-.14-1.7-.2-2.55-.12-1.72-.17-2.58-.09-1.74-.13-2.62-.07-1.75-.09-2.64-.05-1.78-.06-2.68,0-1.8,0-2.71c0-1.91,0-3.79.08-5.65s.12-3.68.22-5.49.22-3.58.37-5.33.32-3.47.52-5.16.42-3.37.66-5,.52-3.27.82-4.86.61-3.15,1-4.69.71-3.05,1.11-4.53.81-3,1.26-4.38.91-2.83,1.4-4.21,1-2.73,1.56-4.06,1.11-2.63,1.7-3.9,1.21-2.52,1.85-3.74,1.31-2.41,2-3.58,1.41-2.31,2.15-3.42,1.5-2.2,2.29-3.26,1.61-2.09,2.45-3.09,1.71-2,2.61-2.88,1.82-1.82,2.77-2.69,1.93-1.69,2.93-2.48,2-1.56,3.09-2.29,2.14-1.43,3.25-2.09,2.25-1.29,3.42-1.89,2.35-1.16,3.57-1.69,2.46-1,3.74-1.49,2.57-.9,3.89-1.29,2.68-.77,4.06-1.1,2.78-.63,4.21-.89,2.9-.5,4.38-.7,3-.36,4.54-.5,3.11-.23,4.7-.29,3.21-.1,4.86-.1c1.15,0,2.29,0,3.41.05S168,83,169.1,83s2.18.17,3.25.28,2.13.24,3.18.39,2.08.31,3.1.5,2,.39,3,.61,2,.47,2.94.73,1.92.54,2.87.84,1.87.61,2.78.94,1.82.69,2.71,1.06,1.77.77,2.63,1.18,1.71.83,2.55,1.28,1.66.91,2.48,1.39,1.6,1,2.39,1.51,1.56,1.06,2.32,1.62,1.5,1.13,2.24,1.73,1.45,1.2,2.15,1.82,1.4,1.26,2.07,1.91,1.34,1.31,2,2,1.28,1.37,1.9,2.07,1.22,1.41,1.81,2.14,1.16,1.47,1.72,2.23,1.11,1.52,1.64,2.3,1,1.58,1.55,2.39,1,1.63,1.46,2.46.93,1.69,1.37,2.55.88,1.73,1.29,2.62.82,1.79,1.21,2.71.75,1.84,1.11,2.78.7,1.9,1,2.87.64,1.95.94,2.94.59,2,.86,3l-2.59.69-2.59.69-2.59.69-2.59.69-2.58.69-2.59.69-2.59.69-2.59.69-2.59.69-2.59.69-2.59.69-2.58.69-2.59.69-2.59.69-2.59.69-2.59.69c-.14-.42-.29-.85-.45-1.26s-.31-.84-.47-1.25-.33-.82-.5-1.23-.34-.8-.52-1.2-.35-.79-.54-1.18-.37-.77-.56-1.16-.38-.76-.58-1.13-.4-.75-.61-1.12-.41-.73-.63-1.09-.43-.72-.65-1.07-.44-.7-.67-1.05l-.7-1c-.23-.34-.47-.67-.71-1l-.74-1-.76-1c-.26-.31-.52-.63-.79-.93s-.54-.61-.82-.9-.56-.57-.86-.84-.6-.53-.91-.78-.63-.49-.95-.73-.66-.45-1-.66-.69-.42-1.05-.61-.72-.38-1.09-.55-.75-.34-1.13-.49-.78-.3-1.19-.44-.81-.26-1.22-.37-.84-.22-1.28-.32-.87-.18-1.31-.26-.91-.15-1.37-.2-.93-.11-1.41-.15-1-.07-1.45-.09-1,0-1.5,0q-1.06,0-2.1.06c-.68,0-1.36.1-2,.18s-1.31.18-1.95.3-1.26.26-1.87.42-1.22.34-1.81.54-1.16.42-1.73.65-1.11.5-1.65.78-1.07.58-1.59.9-1,.66-1.51,1-1,.74-1.44,1.14-.92.82-1.36,1.26-.88.9-1.3,1.38-.82,1-1.22,1.5-.77,1.06-1.14,1.62-.73,1.14-1.08,1.74-.68,1.22-1,1.86-.63,1.3-.93,2-.6,1.35-.88,2.05-.55,1.4-.81,2.12-.51,1.46-.75,2.21-.48,1.51-.7,2.29-.43,1.57-.63,2.37-.39,1.62-.57,2.45-.35,1.68-.51,2.54-.32,1.73-.46,2.62-.27,1.78-.39,2.7-.23,1.84-.33,2.78-.19,1.89-.27,2.86-.15,1.95-.21,2.95-.11,2-.15,3-.07,2.06-.09,3.11,0,2.11,0,3.19v1.64l0,1.62c0,.54,0,1.07,0,1.61s0,1,0,1.58.05,1.05.07,1.56l.09,1.55c0,.51.07,1,.11,1.53s.07,1,.11,1.51.09,1,.14,1.49l.15,1.47c0,.48.11,1,.17,1.45s.12,1,.18,1.43.13,1,.2,1.41l.21,1.4c.08.46.15.92.23,1.37s.16.91.25,1.36.17.89.26,1.33.18.88.28,1.32.19.86.29,1.28.2.85.31,1.27.21.82.32,1.23.23.82.35,1.22.23.79.35,1.19.25.78.37,1.16l.39,1.14c.14.38.27.75.41,1.12l.42,1.09c.14.36.29.72.43,1.07s.3.7.46,1l.46,1c.16.33.32.67.49,1s.33.66.5,1l.51.94.54.92c.18.3.36.6.55.89s.38.58.57.87.39.56.59.83.4.55.61.81.41.53.62.79l.64.75.66.73.68.7.7.67.71.65.73.61.75.59.77.57c.26.18.52.36.79.53s.53.34.8.51l.83.47.84.44.87.41.88.38.91.34.93.31.94.28,1,.24c.32.08.65.15,1,.21s.67.13,1,.18.68.1,1,.15l1,.11,1.07.08,1.09,0,1.1,0c.57,0,1.12,0,1.67,0s1.09-.06,1.62-.1,1.05-.11,1.56-.18l1.52-.25q.75-.15,1.47-.33c.48-.12.95-.25,1.42-.39s.92-.3,1.37-.46.88-.35,1.32-.54.85-.4,1.27-.61.82-.44,1.22-.68l1.17-.75c.38-.26.75-.54,1.12-.82s.72-.59,1.07-.9.69-.63,1-1,.65-.68,1-1,.62-.73.92-1.11.59-.77.88-1.17.56-.8.83-1.21.53-.83.78-1.26.51-.85.75-1.3.47-.88.7-1.34.45-.92.66-1.39.42-1,.61-1.43.39-1,.58-1.48.36-1,.52-1.52.33-1,.49-1.56.3-1.07.44-1.61.27-1.1.4-1.66.24-1.12.35-1.69.22-1.16.32-1.75.18-1.18.26-1.78.16-1.22.23-1.83H156.12V168h76.61V271.7H195.92V256.07h-.54c-.07.13-.14.27-.22.4l-.22.41c-.08.13-.16.27-.25.4l-.25.41c-.09.13-.18.27-.28.4l-.29.4-.3.41-.33.4-.33.41-.36.4c-.12.14-.24.27-.37.4s-.25.27-.38.41l-.4.4-.42.41-.43.4-.45.41-.47.4-.47.4-.49.39-.5.39c-.17.13-.34.26-.52.38l-.52.39-.54.37-.55.38-.57.36-.58.37-.59.36-.6.35-.61.36-.63.34-.64.35-.66.33-.66.34-.68.32-.69.32-.7.31-.71.31-.73.29-.73.29-.75.28-.76.28-.77.26-.78.26-.79.25-.81.25-.81.24-.83.23-.84.22-.85.21-.87.2-.88.18-.89.18-.9.15-.92.15-.93.13-.94.11-.95.11-1,.08-1,.08-1,.06-1,.05-1,0-1,0Z"/><path class="cls-1" d="M284.55,204.47,281,197.09l-3.54-7.37L274,182.34,270.41,175l-3.54-7.38-3.53-7.38-3.54-7.37-3.53-7.38-3.54-7.37-3.54-7.38-3.53-7.38L242.12,116l-3.53-7.38-3.54-7.37-3.54-7.38L228,86.45h50.89l.83,2,.83,2,.83,2,.84,2,.83,2,.83,2,.83,2,.83,2,.83,2,.84,2,.83,2,.83,2,.83,2,.83,2,.83,2,.84,2,.4.93.4.92.39.91.39.89.38.88.37.86.37.85.36.83.35.82.35.8.34.79.33.77.33.76.32.75.32.73.31.71.3.71c.11.23.21.46.31.69s.19.47.29.7l.3.69.29.68.29.68c.09.23.19.45.28.67s.19.45.29.67.18.44.28.66l.27.66.27.65c.1.22.19.43.27.65l.27.64c.09.21.18.43.26.64s.18.42.26.63l.26.62.26.63c.08.2.16.41.25.61s.16.42.25.62.16.41.25.61l.24.61.24.61c.09.2.17.4.25.6s.16.4.23.6l.24.6.24.59c.07.2.15.39.23.59s.15.39.23.58l.23.59c.07.19.15.39.23.58s.15.38.22.58l.22.57c.08.19.15.38.22.58s.15.38.23.58.15.39.23.59.15.39.23.59l.24.6c.07.2.15.41.23.61s.16.41.25.61l.24.62.25.63.25.63c.08.21.17.43.26.64s.17.43.25.65.18.43.26.65l.27.65.27.67.27.67H311l.24-.61.24-.6c.07-.2.15-.4.23-.6l.23-.6.23-.6c.07-.19.15-.39.22-.59s.15-.4.23-.59.15-.4.22-.59.15-.4.22-.59.15-.39.22-.59.14-.39.22-.58l.21-.58.21-.58.21-.58.21-.58c.07-.19.14-.38.2-.57l.21-.58.21-.57.21-.58.21-.58.21-.58c.07-.2.14-.39.22-.58l.21-.59c.08-.2.15-.39.22-.59l.23-.59c.07-.2.15-.39.22-.59l.23-.6c.07-.2.15-.4.23-.59s.15-.4.23-.6.15-.4.23-.6.16-.41.23-.61l.24-.6.24-.61.24-.62.24-.62.25-.62.25-.63.25-.63.25-.65.25-.64.26-.65.26-.66.26-.66.26-.67.27-.67.27-.68.26-.68.28-.69.27-.69c.09-.24.19-.47.28-.71l.29-.72.3-.73c.09-.24.19-.49.3-.74l.3-.76c.11-.25.21-.5.32-.76s.21-.52.32-.78.21-.52.32-.79l.33-.8c.12-.27.23-.54.34-.81s.23-.55.35-.82l.35-.84.36-.85.36-.86c.13-.28.25-.57.37-.87l.82-2.08.81-2.09.82-2.09.81-2.09.82-2.09.81-2.08.82-2.09.81-2.09.81-2.09.82-2.09.81-2.09.82-2.08.81-2.09.82-2.09.81-2.09.82-2.09h50.34l-3.55,7.38-3.55,7.38L380,108.58,376.45,116l-3.55,7.37-3.55,7.38-3.55,7.38-3.56,7.37-3.55,7.38-3.55,7.37-3.56,7.38L348,175l-3.55,7.37-3.55,7.38-3.56,7.37-3.55,7.38V271H284.55V204.47Z"/><path class="cls-1" d="M583.42,271h-47.1V86.45H619.7q1.81,0,3.6.06c1.18,0,2.34.09,3.49.16s2.28.17,3.39.28,2.2.23,3.28.38,2.13.31,3.17.49,2.07.39,3.07.61,2,.45,3,.71,1.92.53,2.85.82,1.85.6,2.75.93,1.78.68,2.64,1,1.71.75,2.53,1.15,1.64.83,2.43,1.26,1.56.9,2.32,1.37,1.49,1,2.21,1.48,1.42,1,2.11,1.59,1.35,1.12,2,1.7,1.27,1.19,1.88,1.8,1.2,1.25,1.76,1.9,1.12,1.32,1.65,2,1,1.38,1.51,2.09,1,1.44,1.4,2.19.87,1.51,1.28,2.28.79,1.58,1.16,2.39.7,1.64,1,2.48.63,1.7.91,2.58.55,1.76.79,2.67.47,1.83.67,2.77.39,1.9.55,2.87.3,2,.42,3,.23,2,.31,3.07.14,2.08.18,3.15.06,2.16.06,3.26c0,.4,0,.81,0,1.21s0,.79,0,1.19,0,.78,0,1.17l-.06,1.16c0,.38,0,.76-.08,1.14s-.07.76-.1,1.13l-.12,1.11c0,.37-.09.73-.14,1.1s-.09.72-.15,1.08-.11.71-.17,1.06-.12.7-.19,1.05-.13.69-.2,1-.15.68-.23,1l-.24,1c-.09.33-.17.66-.26,1s-.18.65-.28,1-.19.64-.29.95-.21.63-.31,1l-.33.92c-.1.31-.22.61-.33.92l-.35.9-.36.88-.38.87-.39.86c-.13.29-.27.57-.41.85l-.41.83-.44.81c-.14.27-.29.54-.44.81l-.46.79c-.16.26-.31.52-.47.77l-.49.77c-.17.25-.33.5-.5.74l-.51.74-.53.72c-.17.24-.35.47-.53.7s-.36.47-.55.69-.36.46-.55.68l-.57.66-.57.65-.59.63-.6.61c-.2.21-.4.41-.61.6l-.61.59-.63.57-.64.56-.65.54-.66.53-.68.51-.68.5c-.22.17-.45.33-.68.49l-.69.47-.69.46q-.34.24-.69.45l-.7.44c-.24.14-.47.29-.71.42l-.71.42-.71.39-.72.39-.72.37-.72.36-.73.35-.74.34-.73.32-.74.31.67.24.66.24.65.26.64.26c.21.09.42.17.63.27l.61.27.61.28.6.3.59.29.57.31.57.31.55.32.55.33.53.33.53.34.51.35.5.36.5.38c.16.13.32.25.48.39l.48.4.47.41.46.43.45.44.45.46.43.47.43.48.42.5.41.51c.14.17.27.35.4.52l.4.54.38.55.38.57.37.58.36.6c.12.2.23.41.35.62l.35.64c.11.22.22.44.34.66l.33.68.32.71c.11.23.21.47.32.72s.21.49.31.74l.3.76c.1.26.2.52.29.78s.2.53.29.8.19.55.28.83.18.55.27.84l.27.86c.08.29.17.58.26.88s.16.6.25.9.16.62.25.93l.24.95.24,1c.09.33.17.66.24,1l.24,1c.08.35.16.7.23,1.05s.16.71.23,1.08.16.72.23,1.09.15.75.22,1.12.15.76.22,1.15.15.77.22,1.17.15.79.22,1.19l.21,1.22.21,1.24c.06.42.13.84.2,1.26l.1.68.1.67.1.67.11.67.1.68.1.67.1.67.1.68.1.67.1.67.11.67.1.68.1.67.1.67.1.68.1.67.21,1.26c.06.42.13.84.2,1.25s.13.81.2,1.21.13.8.2,1.2.13.78.2,1.17.13.76.19,1.14.13.75.2,1.12.13.74.19,1.1.13.72.2,1.07.13.7.19,1,.13.69.19,1,.13.68.19,1,.13.66.19,1,.13.64.19,1,.13.62.19.93.12.61.19.9.12.59.19.88.13.58.2.86.14.56.22.84.15.54.22.81l.24.79c.08.26.17.52.25.77l.26.75c.09.25.18.49.28.73s.18.47.28.7l.3.68c.1.22.2.44.31.66s.21.43.32.64.21.41.33.61.22.4.34.6l.36.57.36.55V271H634.58c-.1-.2-.2-.4-.29-.61s-.2-.41-.29-.61l-.27-.62c-.09-.21-.18-.42-.26-.63s-.17-.42-.25-.64-.16-.42-.23-.64-.15-.43-.23-.65l-.21-.65c-.06-.22-.13-.44-.19-.66s-.13-.44-.19-.67-.11-.44-.17-.67-.11-.45-.16-.68-.1-.45-.14-.68-.09-.46-.14-.69l-.12-.7c0-.23-.07-.47-.1-.71s-.07-.47-.11-.71-.07-.49-.11-.74-.07-.5-.11-.75-.07-.51-.11-.78l-.12-.79c0-.27-.09-.54-.13-.81s-.08-.55-.13-.83-.09-.56-.13-.85-.09-.58-.14-.87-.09-.59-.14-.89-.1-.6-.15-.9l-.15-.93-.15-.94c0-.32-.11-.64-.16-1s-.11-.66-.16-1-.11-.66-.17-1l-.15-1.09-.15-1.1-.16-1.09-.15-1.1-.15-1.09-.15-1.09-.16-1.1L628,238l-.15-1.1-.15-1.09-.15-1.1-.16-1.09-.15-1.1-.15-1.09-.15-1.1-.16-1.09c0-.27-.09-.54-.13-.8l-.15-.79-.15-.77-.15-.76c0-.26-.11-.5-.16-.75s-.11-.49-.16-.73-.12-.49-.17-.72l-.18-.71-.18-.69-.18-.68c-.07-.22-.13-.44-.2-.66s-.12-.44-.19-.66-.13-.42-.2-.63l-.21-.63-.21-.61c-.07-.2-.14-.4-.22-.59s-.15-.39-.22-.59l-.24-.57c-.08-.19-.17-.37-.25-.56s-.17-.37-.26-.55l-.27-.53c-.1-.18-.19-.36-.29-.53s-.19-.34-.29-.51l-.31-.51-.32-.49-.33-.48-.34-.47-.35-.45-.37-.45-.38-.43q-.18-.21-.39-.42c-.13-.14-.26-.28-.4-.41s-.27-.27-.41-.4-.28-.26-.43-.38l-.44-.38-.46-.36-.47-.34-.49-.34-.5-.32-.52-.31-.53-.3-.55-.28-.56-.27-.58-.26-.59-.25-.6-.23-.62-.22-.64-.21-.65-.2-.67-.18-.69-.17-.71-.16-.73-.14-.75-.14-.77-.12-.78-.1-.81-.1-.82-.08-.84-.07-.86-.06-.88,0-.9,0-.92,0H583.42V271Zm0-103.73h24.91c.47,0,.94,0,1.4,0s.91,0,1.36-.07l1.32-.11c.43-.05.86-.1,1.28-.17s.83-.13,1.24-.21.81-.16,1.2-.25.78-.2,1.16-.3l1.12-.35c.37-.13.73-.26,1.08-.4l1-.44,1-.49q.48-.25,1-.54c.31-.18.62-.38.92-.58s.59-.41.87-.63.57-.44.84-.67.54-.48.8-.72.51-.51.76-.77.47-.53.7-.81.45-.55.66-.84.41-.59.61-.89.38-.61.56-.93l.51-1c.16-.33.31-.67.46-1s.28-.69.41-1.05.25-.72.37-1.09.22-.74.31-1.12.19-.78.27-1.17.15-.8.22-1.21.12-.83.17-1.25.09-.85.12-1.29.06-.88.07-1.33,0-.91,0-1.37,0-.92,0-1.36,0-.89-.07-1.32-.07-.85-.12-1.26-.1-.82-.16-1.22-.14-.78-.22-1.16-.16-.76-.26-1.12-.2-.72-.31-1.06-.23-.69-.35-1-.27-.65-.41-1-.29-.62-.45-.91-.33-.59-.5-.87-.36-.55-.55-.82-.39-.52-.59-.76-.42-.49-.64-.72-.46-.46-.69-.67l-.74-.62-.29-.22-.3-.22-.31-.21-.31-.21-.31-.2-.33-.19-.33-.19-.33-.19-.35-.18-.34-.17-.36-.17-.36-.16-.37-.16-.37-.16-.38-.14-.38-.15-.2-.06-.18-.07-.18-.06-.18-.06-.17-.06-.17-.05-.17,0-.17,0-.17,0-.17,0-.18-.05-.18,0-.19,0-.2-.05-.21,0-.21,0-.26-.06-.26,0-.27-.06-.28,0-.28-.06-.29,0-.3-.05-.3,0-.3,0-.3,0-.3,0-.3,0-.29,0-.29,0-.29,0-.28,0-.29,0-.28,0-.29,0-.29,0-.29,0-.3,0h-.29l-.3,0H583.42v43.65Z"/><path class="cls-1" d="M397.32,86.45H521.84v38.26h-78.5v32.61h72v38.26h-72v37.18h79.58V271H397.32V86.45Z"/><rect class="cls-2" width="769.87" height="357.48"/></g></g></svg>